<svg xmlns="http://www.w3.org/2000/svg" xmlns:xlink="http://www.w3.org/1999/xlink" width="292" zoomAndPan="magnify" viewBox="0 0 218.87999 116.999995" height="156" preserveAspectRatio="xMidYMid meet" version="1.0"><defs><g/><clipPath id="ba298f3e04"><path d="M 6 14 L 72.710938 14 L 72.710938 103 L 6 103 Z M 6 14 " clip-rule="nonzero"/></clipPath></defs><g clip-path="url(#ba298f3e04)"><path fill="#ffffff" d="M 8.257812 102.691406 C 7.839844 102.75 6.835938 99.550781 6.34375 93.789062 C 5.855469 88.015625 6 79.710938 8.4375 70.09375 C 10.574219 61.644531 14.421875 52.484375 20.613281 43.878906 C 21.433594 42.738281 22.28125 41.632812 23.148438 40.558594 C 29.296875 32.960938 36.378906 27.242188 43.265625 23.160156 C 53.59375 17.035156 62.894531 14.925781 68.097656 14.3125 C 71.09375 13.960938 72.765625 14.054688 72.808594 14.351562 C 72.851562 14.644531 71.261719 15.113281 68.4375 15.960938 C 63.503906 17.441406 54.863281 20.175781 45.28125 26.40625 C 38.894531 30.558594 32.332031 36.117188 26.570312 43.308594 C 25.753906 44.328125 24.957031 45.371094 24.183594 46.449219 C 18.34375 54.5625 14.535156 63.15625 12.191406 71.117188 C 9.519531 80.195312 8.832031 88.09375 8.644531 93.730469 C 8.460938 99.339844 8.675781 102.628906 8.257812 102.691406 Z M 8.257812 102.691406 " fill-opacity="1" fill-rule="nonzero"/></g><path fill="#ffffff" d="M 1.597656 77.273438 C 1.039062 77.050781 0.390625 74.785156 0.191406 70.960938 C -0.00390625 67.121094 0.300781 61.769531 1.878906 55.609375 C 3.320312 49.96875 5.769531 43.886719 9.550781 37.988281 C 10.066406 37.1875 10.59375 36.40625 11.132812 35.644531 C 14.636719 30.703125 18.59375 26.804688 22.648438 23.890625 C 28.679688 19.554688 34.265625 18.03125 37.667969 17.722656 C 39.976562 17.515625 41.144531 17.84375 41.03125 18.28125 C 40.925781 18.675781 39.902344 19.179688 38.25 19.945312 C 35.226562 21.347656 30.808594 23.429688 25.71875 27.808594 C 22.292969 30.757812 18.976562 34.417969 15.855469 38.949219 C 14.917969 40.3125 14.015625 41.734375 13.148438 43.210938 C 10.367188 47.953125 8.335938 52.671875 6.847656 57.074219 C 4.832031 63.035156 3.882812 68.167969 3.230469 71.820312 C 2.585938 75.445312 2.191406 77.515625 1.597656 77.273438 Z M 1.597656 77.273438 " fill-opacity="1" fill-rule="nonzero"/><g fill="#ffffff" fill-opacity="1"><g transform="translate(53.493099, 83.470128)"><g><path d="M 26.9375 -47.125 C 29.71875 -47.125 32.101562 -46.410156 34.09375 -44.984375 C 36.082031 -43.554688 37.390625 -41.773438 38.015625 -39.640625 C 38.148438 -39.097656 38.21875 -38.554688 38.21875 -38.015625 C 38.21875 -36.773438 37.8125 -35.800781 37 -35.09375 C 36.1875 -34.394531 35.289062 -34.046875 34.3125 -34.046875 C 33.59375 -34.046875 32.90625 -34.242188 32.25 -34.640625 C 31.601562 -35.035156 31.097656 -35.648438 30.734375 -36.484375 C 30.265625 -37.429688 29.722656 -38.179688 29.109375 -38.734375 C 28.492188 -39.296875 27.769531 -39.597656 26.9375 -39.640625 C 26.53125 -39.671875 26 -39.566406 25.34375 -39.328125 C 24.695312 -39.097656 24.128906 -38.726562 23.640625 -38.21875 C 23.148438 -37.71875 22.90625 -37.066406 22.90625 -36.265625 C 22.90625 -35.253906 23.265625 -34.171875 23.984375 -33.015625 C 24.710938 -31.859375 25.585938 -30.71875 26.609375 -29.59375 L 27.25 -28.890625 C 28.375 -27.660156 29.46875 -26.347656 30.53125 -24.953125 C 31.601562 -23.554688 32.5 -22.050781 33.21875 -20.4375 C 33.945312 -18.832031 34.3125 -17.085938 34.3125 -15.203125 C 34.3125 -13.097656 33.859375 -11.128906 32.953125 -9.296875 C 32.046875 -7.472656 30.820312 -5.863281 29.28125 -4.46875 C 27.75 -3.082031 25.988281 -1.988281 24 -1.1875 C 22.007812 -0.394531 19.925781 0 17.75 0 C 15.6875 0 13.710938 -0.332031 11.828125 -1 C 9.953125 -1.675781 8.28125 -2.632812 6.8125 -3.875 C 5.34375 -5.125 4.191406 -6.617188 3.359375 -8.359375 C 2.535156 -10.097656 2.15625 -12.050781 2.21875 -14.21875 C 2.21875 -15.738281 2.679688 -16.890625 3.609375 -17.671875 C 4.535156 -18.453125 5.539062 -18.84375 6.625 -18.84375 C 7.675781 -18.84375 8.632812 -18.476562 9.5 -17.75 C 10.375 -17.03125 10.8125 -15.890625 10.8125 -14.328125 C 10.8125 -14.222656 10.8125 -14.109375 10.8125 -13.984375 C 10.8125 -13.859375 10.789062 -13.722656 10.75 -13.578125 C 10.71875 -11.660156 11.378906 -10.15625 12.734375 -9.0625 C 14.085938 -7.976562 15.742188 -7.421875 17.703125 -7.390625 C 18.898438 -7.390625 20.054688 -7.664062 21.171875 -8.21875 C 22.296875 -8.78125 23.226562 -9.59375 23.96875 -10.65625 C 24.707031 -11.726562 25.078125 -12.988281 25.078125 -14.4375 C 25.078125 -16.070312 24.570312 -17.578125 23.5625 -18.953125 C 22.550781 -20.328125 21.410156 -21.789062 20.140625 -23.34375 C 19.128906 -24.613281 18.132812 -25.875 17.15625 -27.125 C 16.175781 -28.375 15.367188 -29.6875 14.734375 -31.0625 C 14.109375 -32.4375 13.796875 -33.898438 13.796875 -35.453125 C 13.796875 -35.960938 13.847656 -36.476562 13.953125 -37 C 14.066406 -37.53125 14.191406 -38.066406 14.328125 -38.609375 C 14.941406 -40.453125 15.898438 -42.003906 17.203125 -43.265625 C 18.515625 -44.535156 20.019531 -45.492188 21.71875 -46.140625 C 23.414062 -46.796875 25.15625 -47.125 26.9375 -47.125 Z M 26.9375 -47.125 "/></g></g></g><g fill="#ffffff" fill-opacity="1"><g transform="translate(90.415995, 83.470128)"><g><path d="M 19.390625 -15.3125 C 19.710938 -16.175781 20.207031 -16.804688 20.875 -17.203125 C 21.539062 -17.609375 22.21875 -17.8125 22.90625 -17.8125 C 23.738281 -17.8125 24.488281 -17.570312 25.15625 -17.09375 C 25.832031 -16.625 26.171875 -15.976562 26.171875 -15.15625 C 26.171875 -15.007812 26.148438 -14.832031 26.109375 -14.625 C 26.078125 -14.425781 26.023438 -14.238281 25.953125 -14.0625 C 24.398438 -9.613281 22.238281 -6.15625 19.46875 -3.6875 C 16.695312 -1.226562 13.570312 0 10.09375 0 C 8.25 0 6.519531 -0.34375 4.90625 -1.03125 C 3.300781 -1.71875 2.007812 -2.722656 1.03125 -4.046875 C 0.0507812 -5.367188 -0.4375 -6.953125 -0.4375 -8.796875 C -0.4375 -9.921875 -0.21875 -11.132812 0.21875 -12.4375 L 0.21875 -12.375 L 4.78125 -25.46875 L 2.984375 -25.46875 C 2.265625 -25.46875 1.6875 -25.75 1.25 -26.3125 C 0.8125 -26.875 0.59375 -27.53125 0.59375 -28.28125 C 0.59375 -29.15625 0.925781 -29.972656 1.59375 -30.734375 C 2.269531 -31.492188 3.332031 -31.875 4.78125 -31.875 L 7.0625 -31.875 L 11.40625 -43.984375 C 11.726562 -44.921875 12.242188 -45.675781 12.953125 -46.25 C 13.660156 -46.832031 14.460938 -47.125 15.359375 -47.125 C 16.554688 -47.125 17.488281 -46.769531 18.15625 -46.0625 C 18.832031 -45.363281 19.171875 -44.503906 19.171875 -43.484375 C 19.171875 -43.203125 19.113281 -42.859375 19 -42.453125 L 15.359375 -31.875 L 17.8125 -31.875 C 18.863281 -31.875 19.625 -31.609375 20.09375 -31.078125 C 20.5625 -30.554688 20.796875 -29.9375 20.796875 -29.21875 C 20.796875 -28.3125 20.429688 -27.457031 19.703125 -26.65625 C 18.984375 -25.863281 17.9375 -25.46875 16.5625 -25.46875 L 13.03125 -25.46875 L 7.703125 -10.3125 C 7.671875 -10.132812 7.628906 -9.9375 7.578125 -9.71875 C 7.523438 -9.5 7.5 -9.300781 7.5 -9.125 C 7.5 -8.394531 7.773438 -7.769531 8.328125 -7.25 C 8.890625 -6.726562 9.660156 -6.46875 10.640625 -6.46875 C 12.234375 -6.46875 13.816406 -7.195312 15.390625 -8.65625 C 16.960938 -10.125 18.296875 -12.34375 19.390625 -15.3125 Z M 19.390625 -15.3125 "/></g></g></g><g fill="#ffffff" fill-opacity="1"><g transform="translate(108.171564, 83.470128)"><g><path d="M 22.96875 -11.34375 C 23.070312 -11.3125 23.195312 -11.296875 23.34375 -11.296875 C 23.488281 -11.296875 23.617188 -11.296875 23.734375 -11.296875 C 25.316406 -11.296875 26.710938 -11.828125 27.921875 -12.890625 C 29.140625 -13.960938 30.039062 -15.332031 30.625 -17 C 30.914062 -18.007812 31.40625 -18.738281 32.09375 -19.1875 C 32.78125 -19.644531 33.484375 -19.875 34.203125 -19.875 C 35.003906 -19.875 35.710938 -19.601562 36.328125 -19.0625 C 36.941406 -18.519531 37.25 -17.738281 37.25 -16.71875 C 37.25 -16.289062 37.15625 -15.75 36.96875 -15.09375 C 36.351562 -13.207031 35.410156 -11.488281 34.140625 -9.9375 C 32.878906 -8.382812 31.351562 -7.144531 29.5625 -6.21875 C 27.769531 -5.289062 25.804688 -4.828125 23.671875 -4.828125 C 22.546875 -4.828125 21.460938 -4.972656 20.421875 -5.265625 C 19.296875 -3.304688 17.816406 -1.9375 15.984375 -1.15625 C 14.160156 -0.382812 12.179688 0 10.046875 0 C 8.203125 0 6.488281 -0.359375 4.90625 -1.078125 C 3.332031 -1.804688 2.054688 -2.859375 1.078125 -4.234375 C 0.109375 -5.609375 -0.375 -7.238281 -0.375 -9.125 C -0.375 -9.738281 -0.316406 -10.367188 -0.203125 -11.015625 C -0.0976562 -11.671875 0.078125 -12.34375 0.328125 -13.03125 L 4.296875 -24.21875 C 4.867188 -25.84375 5.75 -27.222656 6.9375 -28.359375 C 8.132812 -29.503906 9.507812 -30.375 11.0625 -30.96875 C 12.625 -31.570312 14.257812 -31.875 15.96875 -31.875 C 17.914062 -31.875 19.675781 -31.492188 21.25 -30.734375 C 22.832031 -29.972656 24.082031 -28.894531 25 -27.5 C 25.925781 -26.101562 26.390625 -24.484375 26.390625 -22.640625 C 26.390625 -21.921875 26.242188 -21 25.953125 -19.875 C 25.660156 -18.75 25.316406 -17.671875 24.921875 -16.640625 C 24.523438 -15.609375 24.164062 -14.859375 23.84375 -14.390625 C 23.476562 -13.847656 23.113281 -13.445312 22.75 -13.1875 C 22.851562 -12.6875 22.914062 -12.242188 22.9375 -11.859375 C 22.957031 -11.484375 22.96875 -11.3125 22.96875 -11.34375 Z M 17.921875 -19.703125 C 18.097656 -20.285156 18.257812 -20.875 18.40625 -21.46875 C 18.550781 -22.070312 18.625 -22.609375 18.625 -23.078125 C 18.625 -23.691406 18.367188 -24.242188 17.859375 -24.734375 C 17.359375 -25.222656 16.691406 -25.46875 15.859375 -25.46875 C 15.023438 -25.46875 14.191406 -25.222656 13.359375 -24.734375 C 12.523438 -24.242188 11.945312 -23.546875 11.625 -22.640625 L 7.765625 -11.625 C 7.660156 -11.363281 7.550781 -11 7.4375 -10.53125 C 7.332031 -10.0625 7.28125 -9.570312 7.28125 -9.0625 C 7.28125 -8.414062 7.457031 -7.820312 7.8125 -7.28125 C 8.175781 -6.738281 8.882812 -6.46875 9.9375 -6.46875 C 10.769531 -6.46875 11.546875 -6.703125 12.265625 -7.171875 C 12.992188 -7.640625 13.539062 -8.34375 13.90625 -9.28125 C 13.394531 -9.71875 12.941406 -10.21875 12.546875 -10.78125 C 12.148438 -11.34375 11.929688 -12.078125 11.890625 -12.984375 C 11.890625 -14.066406 12.148438 -15.03125 12.671875 -15.875 C 13.203125 -16.726562 13.898438 -17.378906 14.765625 -17.828125 C 15.640625 -18.285156 16.5625 -18.460938 17.53125 -18.359375 C 17.570312 -18.566406 17.628906 -18.78125 17.703125 -19 C 17.773438 -19.21875 17.847656 -19.453125 17.921875 -19.703125 Z M 17.921875 -19.703125 "/></g></g></g><g fill="#ffffff" fill-opacity="1"><g transform="translate(136.515317, 83.470128)"><g><path d="M 37.078125 -15.96875 C 37.410156 -16.800781 37.921875 -17.40625 38.609375 -17.78125 C 39.296875 -18.164062 40 -18.359375 40.71875 -18.359375 C 41.550781 -18.359375 42.285156 -18.140625 42.921875 -17.703125 C 43.554688 -17.265625 43.875 -16.628906 43.875 -15.796875 C 43.875 -15.472656 43.78125 -15.078125 43.59375 -14.609375 C 42.363281 -11.421875 40.828125 -8.738281 38.984375 -6.5625 C 37.140625 -4.394531 35.148438 -2.757812 33.015625 -1.65625 C 30.878906 -0.550781 28.722656 0 26.546875 0 C 23.941406 0 21.734375 -0.785156 19.921875 -2.359375 C 18.117188 -3.929688 16.925781 -6.039062 16.34375 -8.6875 L 11.78125 -1.796875 C 11.382812 -1.179688 10.894531 -0.726562 10.3125 -0.4375 C 9.738281 -0.144531 9.144531 0 8.53125 0 C 7.625 0 6.796875 -0.296875 6.046875 -0.890625 C 5.304688 -1.492188 4.9375 -2.25 4.9375 -3.15625 C 4.9375 -3.914062 5.265625 -4.726562 5.921875 -5.59375 L 14.71875 -18.078125 C 14.351562 -19.671875 13.878906 -20.921875 13.296875 -21.828125 C 12.722656 -22.734375 12.21875 -23.367188 11.78125 -23.734375 C 11.632812 -23.367188 11.414062 -22.796875 11.125 -22.015625 C 10.84375 -21.234375 10.546875 -20.390625 10.234375 -19.484375 C 9.929688 -18.585938 9.640625 -17.757812 9.359375 -17 C 9.085938 -16.238281 8.898438 -15.691406 8.796875 -15.359375 C 8.429688 -14.347656 7.894531 -13.609375 7.1875 -13.140625 C 6.488281 -12.671875 5.773438 -12.4375 5.046875 -12.4375 C 4.210938 -12.4375 3.46875 -12.6875 2.8125 -13.1875 C 2.164062 -13.695312 1.84375 -14.367188 1.84375 -15.203125 C 1.84375 -15.597656 1.914062 -15.960938 2.0625 -16.296875 C 2.675781 -17.953125 3.171875 -19.332031 3.546875 -20.4375 C 3.929688 -21.539062 4.304688 -22.597656 4.671875 -23.609375 C 5.035156 -24.628906 5.46875 -25.8125 5.96875 -27.15625 C 6.582031 -28.738281 7.53125 -29.921875 8.8125 -30.703125 C 10.101562 -31.484375 11.4375 -31.875 12.8125 -31.875 C 14.695312 -31.875 16.21875 -31.25 17.375 -30 C 18.53125 -28.75 19.582031 -26.875 20.53125 -24.375 C 21.25 -25.394531 22.195312 -26.363281 23.375 -27.28125 C 24.550781 -28.207031 25.804688 -28.957031 27.140625 -29.53125 C 28.484375 -30.113281 29.753906 -30.40625 30.953125 -30.40625 C 32.546875 -30.40625 33.820312 -29.960938 34.78125 -29.078125 C 35.738281 -28.191406 36.21875 -27.003906 36.21875 -25.515625 C 36.21875 -24.285156 35.765625 -23.289062 34.859375 -22.53125 C 33.953125 -21.769531 32.9375 -21.390625 31.8125 -21.390625 C 30.363281 -21.390625 29.207031 -21.914062 28.34375 -22.96875 C 26.675781 -21.695312 24.664062 -19.304688 22.3125 -15.796875 C 22.601562 -13.296875 22.929688 -11.375 23.296875 -10.03125 C 23.660156 -8.695312 24.164062 -7.785156 24.8125 -7.296875 C 25.46875 -6.804688 26.316406 -6.5625 27.359375 -6.5625 C 28.992188 -6.5625 30.710938 -7.332031 32.515625 -8.875 C 34.328125 -10.414062 35.847656 -12.78125 37.078125 -15.96875 Z M 37.078125 -15.96875 "/></g></g></g><g fill="#ffffff" fill-opacity="1"><g transform="translate(171.600212, 83.470128)"><g/></g></g></svg>